HIERARCHY
ROOT Root
{
  OFFSET 0.0 0.0 0.0
  CHANNELS 6 Xposition Yposition Zposition Zrotation Yrotation Xrotation
  JOINT Hips
  {
    OFFSET 0.0 100.0 0.0
    CHANNELS 6 Xposition Yposition Zposition Zrotation Yrotation Xrotation
    JOINT Spine1
    {
      OFFSET -0.013727 5.003763 -0.053727
      CHANNELS 3 Zrotation Yrotation Xrotation
      JOINT Spine2
      {
        OFFSET -0.0 7.125301 -0.029825
        CHANNELS 3 Zrotation Yrotation Xrotation
        JOINT Chest
        {
          OFFSET -1e-06 7.550063 -0.815971
          CHANNELS 3 Zrotation Yrotation Xrotation
          JOINT Neck1
          {
            OFFSET -0.181677 26.311295 -0.553348
            CHANNELS 3 Zrotation Yrotation Xrotation
            JOINT Neck2
            {
              OFFSET -3e-06 7.709397 2.302585
              CHANNELS 3 Zrotation Yrotation Xrotation
              JOINT Head
              {
                OFFSET -5e-06 6.128916 1.953709
                CHANNELS 3 Zrotation Yrotation Xrotation
                JOINT HeadEnd
                {
                  OFFSET 0.003598 16.065403 -1.835379
                  CHANNELS 3 Zrotation Yrotation Xrotation
                }
                JOINT Jaw
                {
                  OFFSET 0.002637 0.475592 3.094941
                  CHANNELS 3 Zrotation Yrotation Xrotation
                }
                JOINT LeftEye
                {
                  OFFSET 3.206381 5.380205 7.586883
                  CHANNELS 3 Zrotation Yrotation Xrotation
                }
                JOINT RightEye
                {
                  OFFSET -3.22244 5.361869 7.558234
                  CHANNELS 3 Zrotation Yrotation Xrotation
                }
              }
            }
          }
          JOINT LeftShoulder
          {
            OFFSET 1.621652 23.237164 5.113413
            CHANNELS 3 Zrotation Yrotation Xrotation
            JOINT LeftArm
            {
              OFFSET 14.919846 2e-06 -5.502326
              CHANNELS 3 Zrotation Yrotation Xrotation
              JOINT LeftForeArm
              {
                OFFSET 28.739307 0.0 -0.002588
                CHANNELS 3 Zrotation Yrotation Xrotation
                JOINT LeftHand
                {
                  OFFSET 27.093981 -1e-06 0.002609
                  CHANNELS 3 Zrotation Yrotation Xrotation
                  JOINT LeftHandThumb1
                  {
                    OFFSET 2.276482 -1.392045 3.191413
                    CHANNELS 3 Zrotation Yrotation Xrotation
                    JOINT LeftHandThumb2
                    {
                      OFFSET 4.012836 -1.828127 1.641654
                      CHANNELS 3 Zrotation Yrotation Xrotation
                      JOINT LeftHandThumb3
                      {
                        OFFSET 2.798515 0.0 -3e-06
                        CHANNELS 3 Zrotation Yrotation Xrotation
                        JOINT LeftHandThumbEnd
                        {
                          OFFSET 3.180793 -4e-06 4e-06
                          CHANNELS 3 Zrotation Yrotation Xrotation
                        }
                      }
                    }
                  }
                  JOINT LeftHandIndex1
                  {
                    OFFSET 3.247555 -0.531998 2.296169
                    CHANNELS 3 Zrotation Yrotation Xrotation
                    JOINT LeftHandIndex2
                    {
                      OFFSET 6.364578 0.01206 0.1786
                      CHANNELS 3 Zrotation Yrotation Xrotation
                      JOINT LeftHandIndex3
                      {
                        OFFSET 3.662364 0.0 0.0
                        CHANNELS 3 Zrotation Yrotation Xrotation
                        JOINT LeftHandIndex4
                        {
                          OFFSET 2.329242 4e-06 4e-06
                          CHANNELS 3 Zrotation Yrotation Xrotation
                          JOINT LeftHandIndexEnd
                          {
                            OFFSET 2.759615 -0.180537 -0.113024
                            CHANNELS 3 Zrotation Yrotation Xrotation
                          }
                        }
                      }
                    }
                  }
                  JOINT LeftHandMiddle1
                  {
                    OFFSET 3.163495 0.240981 1.000332
                    CHANNELS 3 Zrotation Yrotation Xrotation
                    JOINT LeftHandMiddle2
                    {
                      OFFSET 6.19078 -0.259278 -1.002548
                      CHANNELS 3 Zrotation Yrotation Xrotation
                      JOINT LeftHandMiddle3
                      {
                        OFFSET 4.35652 -4e-06 -1e-06
                        CHANNELS 3 Zrotation Yrotation Xrotation
                        JOINT LeftHandMiddle4
                        {
                          OFFSET 2.996877 -8e-06 0.0
                          CHANNELS 3 Zrotation Yrotation Xrotation
                          JOINT LeftHandMiddleEnd
                          {
                            OFFSET 2.304287 -0.294569 -0.031741
                            CHANNELS 3 Zrotation Yrotation Xrotation
                          }
                        }
                      }
                    }
                  }
                  JOINT LeftHandRing1
                  {
                    OFFSET 2.882643 -0.053652 -0.322543
                    CHANNELS 3 Zrotation Yrotation Xrotation
                    JOINT LeftHandRing2
                    {
                      OFFSET 5.854541 -0.486202 -1.373841
                      CHANNELS 3 Zrotation Yrotation Xrotation
                      JOINT LeftHandRing3
                      {
                        OFFSET 4.350578 0.0 3e-06
                        CHANNELS 3 Zrotation Yrotation Xrotation
                        JOINT LeftHandRing4
                        {
                          OFFSET 2.651321 7e-06 2e-06
                          CHANNELS 3 Zrotation Yrotation Xrotation
                          JOINT LeftHandRingEnd
                          {
                            OFFSET 1.936105 0.077687 -7.1e-05
                            CHANNELS 3 Zrotation Yrotation Xrotation
                          }
                        }
                      }
                    }
                  }
                  JOINT LeftHandPinky1
                  {
                    OFFSET 2.8655 -0.310005 -1.600378
                    CHANNELS 3 Zrotation Yrotation Xrotation
                    JOINT LeftHandPinky2
                    {
                      OFFSET 5.087849 -1.331141 -1.77123
                      CHANNELS 3 Zrotation Yrotation Xrotation
                      JOINT LeftHandPinky3
                      {
                        OFFSET 3.070974 4e-06 0.0
                        CHANNELS 3 Zrotation Yrotation Xrotation
                        JOINT LeftHandPinky4
                        {
                          OFFSET 1.549672 0.0 1e-06
                          CHANNELS 3 Zrotation Yrotation Xrotation
                          JOINT LeftHandPinkyEnd
                          {
                            OFFSET 1.944893 -0.157802 0.057219
                            CHANNELS 3 Zrotation Yrotation Xrotation
                          }
                        }
                      }
                    }
                  }
                }
              }
            }
          }
          JOINT RightShoulder
          {
            OFFSET -1.380118 23.180309 5.214158
            CHANNELS 3 Zrotation Yrotation Xrotation
            JOINT RightArm
            {
              OFFSET -15.037196 1.2e-05 -5.545604
              CHANNELS 3 Zrotation Yrotation Xrotation
              JOINT RightForeArm
              {
                OFFSET -28.736639 2e-06 -0.002597
                CHANNELS 3 Zrotation Yrotation Xrotation
                JOINT RightHand
                {
                  OFFSET -27.133619 -0.0 0.002613
                  CHANNELS 3 Zrotation Yrotation Xrotation
                  JOINT RightHandThumb1
                  {
                    OFFSET -2.274032 -1.383988 3.163127
                    CHANNELS 3 Zrotation Yrotation Xrotation
                    JOINT RightHandThumb2
                    {
                      OFFSET -4.011429 -1.827466 1.640914
                      CHANNELS 3 Zrotation Yrotation Xrotation
                      JOINT RightHandThumb3
                      {
                        OFFSET -2.794935 -4e-06 -3e-06
                        CHANNELS 3 Zrotation Yrotation Xrotation
                        JOINT RightHandThumbEnd
                        {
                          OFFSET -3.183852 4e-06 1e-06
                          CHANNELS 3 Zrotation Yrotation Xrotation
                        }
                      }
                    }
                  }
                  JOINT RightHandIndex1
                  {
                    OFFSET -3.253266 -0.520057 2.282866
                    CHANNELS 3 Zrotation Yrotation Xrotation
                    JOINT RightHandIndex2
                    {
                      OFFSET -6.341917 0.012471 0.178266
                      CHANNELS 3 Zrotation Yrotation Xrotation
                      JOINT RightHandIndex3
                      {
                        OFFSET -3.654871 -8e-06 -0.0
                        CHANNELS 3 Zrotation Yrotation Xrotation
                        JOINT RightHandIndex4
                        {
                          OFFSET -2.327586 0.0 1e-06
                          CHANNELS 3 Zrotation Yrotation Xrotation
                          JOINT RightHandIndexEnd
                          {
                            OFFSET -2.76179 -0.180656 -0.113078
                            CHANNELS 3 Zrotation Yrotation Xrotation
                          }
                        }
                      }
                    }
                  }
                  JOINT RightHandMiddle1
                  {
                    OFFSET -3.168106 0.246593 1.00103
                    CHANNELS 3 Zrotation Yrotation Xrotation
                    JOINT RightHandMiddle2
                    {
                      OFFSET -6.180828 -0.258836 -1.000895
                      CHANNELS 3 Zrotation Yrotation Xrotation
                      JOINT RightHandMiddle3
                      {
                        OFFSET -4.348901 0.0 -0.0
                        CHANNELS 3 Zrotation Yrotation Xrotation
                        JOINT RightHandMiddle4
                        {
                          OFFSET -3.00024 -4e-06 -2e-06
                          CHANNELS 3 Zrotation Yrotation Xrotation
                          JOINT RightHandMiddleEnd
                          {
                            OFFSET -2.30252 -0.29437 -0.031706
                            CHANNELS 3 Zrotation Yrotation Xrotation
                          }
                        }
                      }
                    }
                  }
                  JOINT RightHandRing1
                  {
                    OFFSET -2.88569 -0.067952 -0.308858
                    CHANNELS 3 Zrotation Yrotation Xrotation
                    JOINT RightHandRing2
                    {
                      OFFSET -5.854198 -0.48613 -1.373731
                      CHANNELS 3 Zrotation Yrotation Xrotation
                      JOINT RightHandRing3
                      {
                        OFFSET -4.33881 -4e-06 -0.0
                        CHANNELS 3 Zrotation Yrotation Xrotation
                        JOINT RightHandRing4
                        {
                          OFFSET -2.654903 -4e-06 4e-06
                          CHANNELS 3 Zrotation Yrotation Xrotation
                          JOINT RightHandRingEnd
                          {
                            OFFSET -1.933568 0.077527 -5.2e-05
                            CHANNELS 3 Zrotation Yrotation Xrotation
                          }
                        }
                      }
                    }
                  }
                  JOINT RightHandPinky1
                  {
                    OFFSET -2.866425 -0.342796 -1.584145
                    CHANNELS 3 Zrotation Yrotation Xrotation
                    JOINT RightHandPinky2
                    {
                      OFFSET -5.091371 -1.332055 -1.772385
                      CHANNELS 3 Zrotation Yrotation Xrotation
                      JOINT RightHandPinky3
                      {
                        OFFSET -3.062664 -4e-06 1e-06
                        CHANNELS 3 Zrotation Yrotation Xrotation
                        JOINT RightHandPinky4
                        {
                          OFFSET -1.546529 4e-06 -2e-06
                          CHANNELS 3 Zrotation Yrotation Xrotation
                          JOINT RightHandPinkyEnd
                          {
                            OFFSET -1.945119 -0.157718 0.057211
                            CHANNELS 3 Zrotation Yrotation Xrotation
                          }
                        }
                      }
                    }
                  }
                }
              }
            }
          }
        }
      }
    }
    JOINT LeftLeg
    {
      OFFSET 10.043214 -8.434526 2.595655
      CHANNELS 3 Zrotation Yrotation Xrotation
      JOINT LeftShin
      {
        OFFSET -1e-06 -43.221752 -0.802913
        CHANNELS 3 Zrotation Yrotation Xrotation
        JOINT LeftFoot
        {
          OFFSET 1e-06 -42.155094 -3.481523
          CHANNELS 3 Zrotation Yrotation Xrotation
          JOINT LeftToeBase
          {
            OFFSET 0.0 -5.059472 13.231529
            CHANNELS 3 Zrotation Yrotation Xrotation
            JOINT LeftToeEnd
            {
              OFFSET -0.009607 -1.647619 6.513017
              CHANNELS 3 Zrotation Yrotation Xrotation
            }
          }
        }
      }
    }
    JOINT RightLeg
    {
      OFFSET -10.047278 -8.29526 2.620317
      CHANNELS 3 Zrotation Yrotation Xrotation
      JOINT RightShin
      {
        OFFSET 1e-06 -43.362206 -0.805556
        CHANNELS 3 Zrotation Yrotation Xrotation
        JOINT RightFoot
        {
          OFFSET 2e-06 -42.117393 -3.478398
          CHANNELS 3 Zrotation Yrotation Xrotation
          JOINT RightToeBase
          {
            OFFSET -0.0 -5.079609 13.284196
            CHANNELS 3 Zrotation Yrotation Xrotation
            JOINT RightToeEnd
            {
              OFFSET 0.009532 -1.634378 6.460591
              CHANNELS 3 Zrotation Yrotation Xrotation
            }
          }
        }
      }
    }
  }
}
MOTION
Frames: 4
Frame Time: 0.03333333333333333
0.0 0.0 0.0 0.0 -0.0 0.0 0.423557 99.072815 -1.196061 0.044351 0.212261 -5.146907 -0.39806 -0.234552 -4.443298 -0.747145 -0.715189 -7.024112 0.641316 -3.000743 15.647057 -0.214986 3.268408 18.338705 -1.94211 -3.950141 -3.382686 -3.485322 -3.624987 3.218272 7.7e-05 -2.3e-05 6e-06 0.044635 -0.032648 -0.027896 0.799 -3.702636 -10.39111 -0.711667 3.636651 -10.403658 -10.983738 -3.603283 15.885648 -64.237343 -9.663351 23.969698 0.178924 -24.645477 0.086665 -4.902034 -3.597548 -1.994913 -5.882108 9.861287 0.702592 -10.936875 -0.360575 7.156208 -1e-06 8.774826 -3e-06 -16.239813 18.311333 6.019717 -1.844033 2.498505 -2.507279 -10.163604 4.678946 4.62111 -20.97603 -1e-06 2e-06 -21.226292 2.451699 -3.594002 2e-06 -6e-06 -0.0 -1.362683 2.2408 -0.746321 -21.334921 0.584911 3.008324 -13.821218 -2e-06 1e-06 -23.887178 -0.249078 -0.839484 -60.514515 2.781287 -1.260073 -0.294024 1.679687 0.833255 -14.218214 0.093216 1.300581 -34.212063 -0.287563 0.96717 -20.033222 0.964538 1.212843 -0.0 1e-06 1e-06 -3.440389 0.788234 0.501656 -15.928192 -3.16731 2.999709 -6.338828 -1e-06 1e-06 -18.123453 3.648184 -4.90567 -2e-06 1e-06 -1e-06 22.175627 6.727526 20.359062 52.851521 15.202084 34.079754 0.705306 22.284765 0.202213 -7.524085 -5.267025 -20.614622 2.243541 -5.255037 -3.180157 14.282892 -0.826594 6.952506 -2e-06 -12.690603 -0.0 16.173079 -17.55018 2.451942 1.665665 -1.955921 -2.8783 4.727798 -4.170587 4.993925 11.020526 3e-06 -2e-06 12.109052 -3.735715 -2.866784 -1e-06 0.0 -0.0 1.291985 -1.928548 -1.498088 14.800129 0.567468 3.865611 14.242571 -1.341735 -6.660658 19.631968 0.143924 -0.648243 49.348301 -0.391151 -6.411981 0.353029 -1.511151 -0.03194 20.222794 3.684309 2.316634 18.787273 3e-06 0.0 10.751628 -0.47987 1.397907 -1e-06 -1e-06 -0.0 3.273807 0.305947 -0.580111 21.486818 11.830376 2.266137 8.162928 2e-06 0.0 18.399082 -3.798985 -4.940573 5e-06 1e-06 -1e-06 8.514761 10.904263 9.773961 0.000983 -0.106626 3.406494 -7.381803 0.416295 -6.76568 1.648147 -1.980747 -0.88218 -0.0 -0.0 2e-06 -3.203344 -0.708691 3.395587 -0.096193 0.028322 12.687412 7.074455 -14.196958 -11.47744 -1.40617 1.034682 -0.263849 0.0 0.0 -1e-06 
0.0 0.0 0.0 0.0 -0.0 0.0 0.419884 99.11692 -1.253224 0.029019 0.245754 -5.091247 -0.398506 -0.257231 -4.458404 -0.720783 -0.627883 -6.999925 0.553269 -2.988637 15.558686 -0.313954 3.322104 18.33864 -1.901953 -4.003317 -3.361103 -3.448867 -3.675857 3.161078 7.7e-05 -2.3e-05 6e-06 0.034218 -0.012628 -0.028015 0.786354 -3.68295 -10.390313 -0.720225 3.657815 -10.40247 -11.141951 -3.493628 15.890299 -63.976723 -9.693155 23.60767 0.103206 -24.718409 0.041325 -4.993227 -3.55081 -1.872039 -5.882107 9.861286 0.702589 -10.936872 -0.360573 7.156205 -2e-06 8.774826 -1e-06 -16.234247 18.289917 6.006345 -1.844033 2.498505 -2.507277 -10.163599 4.678946 4.621105 -20.976023 -2e-06 -1e-06 -21.226288 2.451696 -3.594003 2e-06 -5e-06 -0.0 -1.362682 2.240798 -0.746325 -21.334913 0.584912 3.00832 -13.821213 -1e-06 -1e-06 -23.887171 -0.249079 -0.839487 -60.399944 2.78767 -1.207098 -0.294025 1.679688 0.833256 -14.218207 0.093217 1.30058 -34.212051 -0.287563 0.967164 -20.033211 0.964537 1.212842 0.0 1e-06 1e-06 -3.440389 0.788234 0.501655 -15.928185 -3.167307 2.999706 -6.338827 -1e-06 -1e-06 -18.123449 3.648186 -4.905673 -3e-06 0.0 -1e-06 22.270964 6.911628 20.382364 52.282131 15.768096 33.281712 0.774075 21.898548 0.196064 -7.12386 -5.246489 -20.758276 2.243543 -5.25504 -3.18016 14.282896 -0.826596 6.952504 -1e-06 -12.69061 0.0 16.207436 -17.539898 2.416489 1.665667 -1.955922 -2.878299 4.727801 -4.17059 4.993925 11.020531 2e-06 -2e-06 12.109058 -3.735719 -2.866786 -0.0 -0.0 -0.0 1.291986 -1.928549 -1.498089 14.800134 0.567467 3.865609 14.242579 -1.341738 -6.660661 19.631973 0.143925 -0.648248 49.457291 -0.375517 -6.391853 0.35303 -1.511152 -0.03194 20.222801 3.684309 2.31663 18.787283 3e-06 -3e-06 10.751635 -0.479868 1.397905 -0.0 -1e-06 -0.0 3.273808 0.305947 -0.580112 21.486822 11.830379 2.266133 8.16293 1e-06 -1e-06 18.399092 -3.798988 -4.940577 4e-06 1e-06 -2e-06 8.541312 10.912352 9.82176 -0.016831 -0.152106 3.057739 -7.472848 0.423205 -6.440942 1.650868 -2.009663 -0.948678 -0.0 -0.0 2e-06 -3.175192 -0.703886 3.464411 -0.090162 0.054288 12.351036 7.001207 -14.261231 -11.262669 -1.412104 1.012667 -0.253131 0.0 0.0 -1e-06 
0.0 0.0 0.0 0.0 -0.0 0.0 0.404404 99.137833 -1.330579 0.032784 0.28576 -5.059168 -0.409711 -0.273679 -4.471516 -0.703403 -0.565313 -6.98927 0.468666 -2.912758 15.504634 -0.359294 3.37971 18.373104 -1.877898 -4.072083 -3.38018 -3.390433 -3.755444 3.178657 7.7e-05 -2.2e-05 6e-06 0.029806 -0.002875 -0.026736 0.778984 -3.671272 -10.408221 -0.72183 3.665964 -10.41432 -11.302429 -3.387084 15.86217 -63.72057 -9.625591 23.131794 0.045545 -24.867561 0.009461 -5.08303 -3.508382 -1.929851 -5.882113 9.861296 0.702589 -10.936878 -0.360572 7.156212 -2e-06 8.774833 -2e-06 -16.230627 18.286585 6.004385 -1.844034 2.498508 -2.50728 -10.16361 4.678951 4.621113 -20.976042 2e-06 0.0 -21.226307 2.451701 -3.594007 2e-06 -5e-06 -1e-06 -1.362684 2.240802 -0.746324 -21.33493 0.584916 3.008324 -13.821225 1e-06 -2e-06 -23.88719 -0.249076 -0.83949 -60.299015 2.822899 -1.242402 -0.294025 1.679688 0.833257 -14.218219 0.093219 1.300579 -34.212074 -0.287558 0.967164 -20.033226 0.96454 1.212839 -1e-06 1e-06 1e-06 -3.440392 0.788235 0.501658 -15.9282 -3.167309 2.999709 -6.338831 0.0 -1e-06 -18.123461 3.648189 -4.905678 -3e-06 0.0 -0.0 22.312933 7.15808 20.362169 51.58778 16.593914 32.381359 0.853222 21.621662 0.18897 -6.755061 -5.333844 -21.117132 2.243544 -5.255042 -3.18016 14.282904 -0.826598 6.952508 -0.0 -12.690616 -1e-06 16.245409 -17.501965 2.393305 1.665668 -1.955924 -2.878302 4.727803 -4.170592 4.993927 11.020537 1e-06 -2e-06 12.109064 -3.735721 -2.866787 -1e-06 -0.0 -0.0 1.291986 -1.928552 -1.498091 14.800142 0.567467 3.86561 14.242586 -1.34174 -6.660664 19.631985 0.143923 -0.648247 49.482231 -0.37719 -6.392946 0.35303 -1.511153 -0.031941 20.222805 3.68431 2.316631 18.787289 2e-06 -4e-06 10.751637 -0.47987 1.397904 -0.0 -0.0 -0.0 3.27381 0.305947 -0.580111 21.486828 11.830383 2.266135 8.162934 0.0 -3e-06 18.399099 -3.798991 -4.940581 4e-06 -0.0 -2e-06 8.544494 10.929711 9.753731 -0.020157 -0.184565 3.007066 -7.481323 0.417888 -6.323895 1.652124 -2.021999 -0.969743 -0.0 -0.0 2e-06 -3.176705 -0.751661 3.421093 -0.080541 0.064279 12.273781 6.980104 -14.265167 -11.174257 -1.413354 1.018697 -0.209834 -0.0 0.0 -1e-06 
0.0 0.0 0.0 0.0 -0.0 0.0 0.377008 99.150803 -1.429635 0.026193 0.285702 -5.038244 -0.424186 -0.284462 -4.468662 -0.681678 -0.50381 -6.98725 0.389744 -2.800729 15.440406 -0.36994 3.400254 18.421833 -1.865285 -4.095306 -3.40323 -3.30128 -3.809078 3.202785 7.8e-05 -2.2e-05 6e-06 0.027186 -0.002809 -0.023384 0.775454 -3.669125 -10.428415 -0.723507 3.663939 -10.429719 -11.463354 -3.277368 15.81657 -63.48267 -9.482957 22.626591 0.054157 -25.082115 -0.018015 -5.125891 -3.487524 -2.173421 -5.882112 9.861293 0.702589 -10.936878 -0.360574 7.156208 -1e-06 8.77483 -3e-06 -16.191893 18.236635 6.00564 -1.844033 2.498507 -2.507281 -10.163608 4.678949 4.621109 -20.97604 -0.0 -0.0 -21.226305 2.4517 -3.594004 0.0 -5e-06 -1e-06 -1.362682 2.2408 -0.746324 -21.334929 0.584913 3.008323 -13.821221 -0.0 -2e-06 -23.887184 -0.249076 -0.839488 -60.199867 2.850322 -1.290084 -0.294025 1.679688 0.833256 -14.218218 0.093217 1.30058 -34.212074 -0.287561 0.967165 -20.033226 0.964538 1.212839 -1e-06 -0.0 1e-06 -3.440391 0.788234 0.501656 -15.928196 -3.167309 2.999705 -6.338831 0.0 -0.0 -18.123463 3.648187 -4.905677 -2e-06 1e-06 -0.0 22.259789 7.451184 20.303246 50.755463 17.752159 31.46158 0.83902 21.555466 0.162584 -6.363719 -5.464516 -21.693073 2.243544 -5.255042 -3.18016 14.282904 -0.826598 6.952508 -0.0 -12.690616 1e-06 16.271112 -17.46446 2.398757 1.665667 -1.955922 -2.878299 4.727804 -4.170593 4.993927 11.020536 1e-06 0.0 12.109062 -3.735722 -2.866786 0.0 -0.0 -0.0 1.291987 -1.928551 -1.49809 14.800142 0.567466 3.86561 14.242585 -1.34174 -6.660662 19.631987 0.143922 -0.648244 49.456879 -0.405688 -6.392838 0.353029 -1.511153 -0.031939 20.222807 3.68431 2.316633 18.787289 2e-06 -4e-06 10.751637 -0.47987 1.397906 -0.0 -1e-06 2e-06 3.27381 0.305946 -0.580112 21.486832 11.830382 2.266137 8.162935 -1e-06 -2e-06 18.399099 -3.798991 -4.940581 2e-06 -0.0 -2e-06 8.550865 10.948054 9.636692 -0.018849 -0.199849 3.077458 -7.428217 0.457678 -6.288264 1.651953 -2.024829 -1.008256 -0.0 -0.0 2e-06 -3.172055 -0.834665 3.323608 -0.070643 0.059843 12.288898 6.979646 -14.155539 -11.112081 -1.412263 1.022516 -0.196145 -0.0 0.0 -1e-06 
